HIERARCHY
ROOT Hips
{
	OFFSET -0.001795 -0.223333 0.028219
	CHANNELS 6 Xposition Yposition Zposition Zrotation Yrotation Xrotation 
	JOINT LeftUpLeg
	{
		OFFSET 0.069520 -0.091406 -0.006815
		CHANNELS 3 Zrotation Yrotation Xrotation
		JOINT LeftLeg
		{
			OFFSET 0.034277 -0.375199 -0.004496
			CHANNELS 3 Zrotation Yrotation Xrotation
			JOINT LeftFoot
			{
				OFFSET -0.013596 -0.397961 -0.043693
				CHANNELS 3 Zrotation Yrotation Xrotation
				JOINT LeftToe
				{
					OFFSET 0.026358 -0.055791 0.119288
					CHANNELS 3 Zrotation Yrotation Xrotation
					End Site
					{
						OFFSET 0.000000 0.000000 0.000000
					}
				}
			}
		}
	}
	JOINT RightUpLeg
	{
		OFFSET -0.067670 -0.090522 -0.004320
		CHANNELS 3 Zrotation Yrotation Xrotation
		JOINT RightLeg
		{
			OFFSET -0.038290 -0.382569 -0.008850
			CHANNELS 3 Zrotation Yrotation Xrotation
			JOINT RightFoot
			{
				OFFSET 0.015774 -0.398415 -0.042312
				CHANNELS 3 Zrotation Yrotation Xrotation
				JOINT RightToe
				{
					OFFSET -0.025372 -0.048144 0.123348
					CHANNELS 3 Zrotation Yrotation Xrotation
					End Site
					{
						OFFSET 0.000000 0.000000 0.000000
					}
				}
			}
		}
	}
	JOINT Spine
	{
		OFFSET -0.002533 0.108963 -0.026696
		CHANNELS 3 Zrotation Yrotation Xrotation
		JOINT Spine1
		{
			OFFSET 0.005487 0.135180 0.001092
			CHANNELS 3 Zrotation Yrotation Xrotation
			JOINT Spine2
			{
				OFFSET 0.001457 0.052922 0.025425
				CHANNELS 3 Zrotation Yrotation Xrotation
				JOINT Neck
				{
					OFFSET -0.002778 0.213870 -0.042857
					CHANNELS 3 Zrotation Yrotation Xrotation
					JOINT Head
					{
						OFFSET 0.005152 0.064970 0.051349
						CHANNELS 3 Zrotation Yrotation Xrotation
						End Site
						{
							OFFSET 0.000000 0.000000 0.000000
						}
					}
				}
				JOINT LeftShoulder
				{
					OFFSET 0.078845 0.121749 -0.034090
					CHANNELS 3 Zrotation Yrotation Xrotation
					JOINT LeftArm
					{
						OFFSET 0.090977 0.030469 -0.008868
						CHANNELS 3 Zrotation Yrotation Xrotation
						JOINT LeftForeArm
						{
							OFFSET 0.259612 -0.012772 -0.027456
							CHANNELS 3 Zrotation Yrotation Xrotation
							JOINT LeftHand
							{
								OFFSET 0.249234 0.008986 -0.001171
								CHANNELS 3 Zrotation Yrotation Xrotation
								End Site
								{
									OFFSET 0.000000 0.000000 0.000000
								}
							}
						}
					}
				}
				JOINT RightShoulder
				{
					OFFSET -0.081759 0.118833 -0.038615
					CHANNELS 3 Zrotation Yrotation Xrotation
					JOINT RightArm
					{
						OFFSET -0.096012 0.032551 -0.009143
						CHANNELS 3 Zrotation Yrotation Xrotation
						JOINT RightForeArm
						{
							OFFSET -0.253742 -0.013329 -0.021401
							CHANNELS 3 Zrotation Yrotation Xrotation
							JOINT RightHand
							{
								OFFSET -0.255298 0.007772 -0.005559
								CHANNELS 3 Zrotation Yrotation Xrotation
								End Site
								{
									OFFSET 0.000000 0.000000 0.000000
								}
							}
						}
					}
				}
			}
		}
	}
}
MOTION
Frames: 13
Frame Time: 0.050000
0.000000 0.869632 0.000000 -2.791602 0.146247 5.369815 8.001739 -0.906642 -34.224187 -7.624805 2.082424 34.736611 6.035756 12.216975 -2.519928 0.000000 0.000000 0.000000 -5.574345 1.431716 -24.093665 10.186179 -4.601874 57.353287 -8.695449 -21.322482 0.927217 0.000000 0.000000 0.000000 -6.099025 0.585784 37.695473 -3.084040 1.466668 6.240459 1.628141 2.505084 0.403902 0.483531 0.895329 -14.030838 0.000000 0.000000 0.000000 -19.927074 -38.467325 19.765594 -14.088745 -28.281052 0.631257 61.040725 -40.196149 -22.210167 0.000000 0.000000 0.000000 17.270946 35.952377 18.961107 25.249804 33.592104 3.560349 -71.021914 35.816892 -21.985940 0.000000 0.000000 0.000000 
0.004169 0.873212 0.032942 -3.454767 0.697288 4.735423 7.874187 -0.934259 -31.538816 -6.959577 1.720018 35.378159 6.048265 11.814021 -4.454222 0.000000 0.000000 0.000000 -5.195062 1.602367 -26.836749 11.035870 -5.055667 53.821734 -7.909511 -19.457214 -5.962793 0.000000 0.000000 0.000000 -5.529242 0.278381 37.145959 -2.238373 0.984522 8.762078 0.396053 3.099915 -2.615484 1.299003 0.196373 -10.892417 0.000000 0.000000 0.000000 -19.336009 -38.395715 19.063712 -13.896560 -27.102849 0.720442 68.129167 -41.706299 -26.792901 0.000000 0.000000 0.000000 15.281264 39.478482 20.692640 23.355716 33.555925 3.254878 -74.207379 32.776420 -20.911905 0.000000 0.000000 0.000000 
0.007268 0.876984 0.067089 -2.390857 2.214245 3.952619 5.692510 -1.359437 -26.287858 -5.873545 0.969473 31.932657 6.054896 10.749153 -8.269046 0.000000 0.000000 0.000000 -5.106479 1.674454 -30.766037 9.639625 -4.499776 52.513922 -7.669785 -18.745611 -9.886338 0.000000 0.000000 0.000000 -4.615207 -0.248029 36.662454 -2.589135 1.122071 9.297440 1.058874 2.418277 -2.982969 -0.277081 1.088983 -10.032363 0.000000 0.000000 0.000000 -18.981162 -38.650388 19.202498 -14.541174 -28.422218 0.934109 70.789095 -37.406827 -25.088818 0.000000 0.000000 0.000000 12.250348 39.336558 19.260714 20.303693 33.576207 2.676911 -74.686659 31.331675 -20.181712 0.000000 0.000000 0.000000 
0.009583 0.880047 0.102095 -3.260850 3.195250 2.183815 6.476308 -1.080516 -22.825284 -5.908160 0.824385 33.281918 5.758699 9.650275 -8.843507 0.000000 0.000000 0.000000 -3.442898 2.142539 -33.767418 7.170051 -3.190371 52.405808 -7.714383 -18.908163 -3.765955 0.000000 0.000000 0.000000 -2.023104 -1.250817 35.380547 -2.973152 1.322831 9.043696 0.440803 3.695029 0.015427 1.874677 0.035886 -11.828545 0.000000 0.000000 0.000000 -18.979536 -39.144146 18.819364 -14.485228 -27.440383 0.840617 72.812302 -39.246857 -27.831547 0.000000 0.000000 0.000000 12.611226 40.116912 20.173371 16.415263 32.682343 1.548311 -79.404361 26.461431 -17.692855 0.000000 0.000000 0.000000 
0.010892 0.880173 0.139038 -2.170118 5.502472 1.681055 4.427470 -1.241291 -18.669273 -4.329967 -0.090061 31.318917 5.646724 7.809925 -11.803893 0.000000 0.000000 0.000000 -4.406074 1.698260 -37.598969 5.400096 -2.454806 49.259522 -5.966460 -14.546189 -1.522972 0.000000 0.000000 0.000000 -1.113505 -1.685072 33.488923 -2.123792 0.672247 11.115262 0.267058 3.616236 -2.966577 1.754682 -0.289473 -8.066090 0.000000 0.000000 0.000000 -19.366909 -38.649843 18.312362 -20.173896 -26.553304 1.816919 77.493154 -40.912469 -31.975244 0.000000 0.000000 0.000000 13.486678 40.634189 21.014000 16.568894 30.414033 1.435410 -84.981486 25.243931 -18.377632 0.000000 0.000000 0.000000 
0.010605 0.878574 0.178338 -1.832830 6.248177 1.967683 3.554966 -1.221926 -16.687004 -3.005059 -0.730918 32.051798 5.733605 7.496595 -12.667989 0.000000 0.000000 0.000000 -3.948194 1.765561 -38.425711 3.577172 -1.362863 45.927099 -4.688944 -10.940690 -3.780959 0.000000 0.000000 0.000000 1.095139 -2.292643 31.723562 -1.445140 0.197836 11.725665 -0.558399 5.300024 -2.279141 1.391820 0.405964 -10.717930 0.000000 0.000000 0.000000 -17.750738 -37.103633 16.244992 -25.536399 -25.846500 2.581230 84.648883 -44.721715 -40.443171 0.000000 0.000000 0.000000 9.048462 38.313172 18.511680 17.295360 32.558882 1.838414 -89.782591 23.229179 -17.156827 0.000000 0.000000 0.000000 
0.008307 0.873849 0.220164 -0.817044 8.455309 1.204980 1.894037 -1.321684 -15.294517 -1.240418 -2.036516 35.717246 5.244506 6.339973 -11.410626 0.000000 0.000000 0.000000 -4.360427 1.280476 -36.863144 3.389594 -1.728393 45.527192 -5.338690 -12.711106 -3.599728 0.000000 0.000000 0.000000 2.998183 -2.879938 30.231740 -0.554853 -0.474293 11.870135 -1.133985 4.692238 -2.785548 2.668361 -0.496861 -9.900446 0.000000 0.000000 0.000000 -21.028636 -34.493528 15.139599 -28.914520 -23.055089 2.667309 91.375928 -50.941195 -51.423285 0.000000 0.000000 0.000000 10.428378 37.333882 18.587772 16.352528 32.150980 1.575280 -91.010722 22.987646 -17.257527 0.000000 0.000000 0.000000 
0.003447 0.869247 0.263092 -0.406372 10.855700 0.769696 2.445790 -1.551868 -17.716446 -3.026331 -2.566814 45.156325 4.325436 7.508375 -3.902984 0.000000 0.000000 0.000000 -4.258319 0.986740 -35.536853 2.938204 -2.243598 48.398135 -5.791711 -13.947485 -2.950817 0.000000 0.000000 0.000000 4.503956 -3.171036 27.904602 0.305741 -1.232201 12.755985 -1.589768 5.547686 -4.198299 2.905600 -0.727297 -8.742575 0.000000 0.000000 0.000000 -24.343330 -32.372135 13.513422 -32.159825 -18.108222 2.308749 102.625248 -56.445179 -67.801407 0.000000 0.000000 0.000000 13.081772 34.325792 18.415239 18.678714 30.044832 1.692608 -94.785272 26.791430 -21.783440 0.000000 0.000000 0.000000 
-0.001926 0.867785 0.305638 -0.366961 12.377827 -0.301382 4.423481 -1.855145 -22.752737 -7.678062 -1.443653 58.369738 2.873602 9.305723 9.324263 0.000000 0.000000 0.000000 -3.614336 1.024845 -32.197585 3.061407 -3.006958 50.514646 -6.049512 -14.538500 -5.583088 0.000000 0.000000 0.000000 5.524447 -3.268791 26.179584 0.738856 -1.456825 11.534387 -1.760772 6.631621 -3.775714 3.054926 -1.282635 -5.671650 0.000000 0.000000 0.000000 -27.586681 -29.411597 11.064248 -33.113998 -13.953362 1.672272 111.830384 -61.735088 -83.416194 0.000000 0.000000 0.000000 16.778595 32.406853 19.203056 19.732079 27.124111 1.261741 -97.666757 31.165810 -27.308632 0.000000 0.000000 0.000000 
-0.005805 0.871851 0.347220 0.368878 14.602854 -0.325134 5.027689 -2.494901 -28.108482 -11.971517 0.421728 67.392271 4.059059 12.715014 16.742242 0.000000 0.000000 0.000000 -3.199102 0.956873 -28.122903 2.759054 -3.495861 49.996777 -6.688462 -16.562699 -7.198250 0.000000 0.000000 0.000000 4.794729 -2.908892 24.260541 1.591599 -1.905675 10.006991 -1.869835 7.401012 -4.213300 3.758098 -1.677600 -5.830814 0.000000 0.000000 0.000000 -27.836763 -28.090270 9.307814 -34.137211 -10.764303 1.177801 121.554066 -63.856432 -97.416861 0.000000 0.000000 0.000000 20.715430 29.967787 19.854240 19.105146 25.762922 0.750811 -97.092472 36.303638 -32.390770 0.000000 0.000000 0.000000 
-0.005927 0.881310 0.388130 0.514844 14.810425 -0.827740 6.196868 -2.674765 -31.378665 -14.465650 2.438985 68.035142 6.524980 16.122773 15.985378 0.000000 0.000000 0.000000 -2.718682 1.048949 -23.583414 2.769747 -3.419219 47.818710 -6.549392 -16.342963 -5.877550 0.000000 0.000000 0.000000 3.624316 -2.512121 23.436217 0.835092 -1.430501 9.690559 -1.942083 8.469903 -4.328090 4.549782 -2.046024 -6.496211 0.000000 0.000000 0.000000 -25.968098 -26.852977 7.909683 -34.878042 -9.434220 0.903297 130.174352 -62.526251 -107.184316 0.000000 0.000000 0.000000 22.797316 28.786758 20.344373 19.785503 24.937908 0.563351 -98.206620 38.763416 -35.542050 0.000000 0.000000 0.000000 
-0.001852 0.894878 0.428962 0.886376 15.104664 -1.121163 6.115621 -2.854200 -32.504506 -12.820230 1.367298 59.563266 7.990989 17.863942 8.920057 0.000000 0.000000 0.000000 -2.580478 0.971579 -18.253355 3.162752 -3.196479 43.057153 -6.678221 -16.919823 -4.437541 0.000000 0.000000 0.000000 2.194502 -2.021073 22.059862 0.313654 -1.011024 8.662640 -1.132636 8.991853 -4.100765 4.467229 -1.683253 -7.780104 0.000000 0.000000 0.000000 -23.886272 -24.458836 6.249682 -36.817426 -8.108732 0.422149 132.334634 -62.115708 -110.101562 0.000000 0.000000 0.000000 23.176842 26.989458 19.484720 22.248741 26.487244 1.035169 -94.890892 43.043266 -37.774197 0.000000 0.000000 0.000000 
0.006973 0.908675 0.470632 0.944697 14.085513 -0.728194 6.742795 -2.563095 -32.146148 -8.060159 -0.402257 45.256598 5.307689 11.682120 1.381358 0.000000 0.000000 0.000000 -2.309367 0.846958 -12.944794 3.689954 -2.638541 37.294955 -6.592671 -16.766764 -2.466904 0.000000 0.000000 0.000000 1.049211 -1.495723 19.792923 -0.276764 -0.515569 7.434906 -1.029725 10.471484 -3.159800 4.667440 -1.469624 -9.053772 0.000000 0.000000 0.000000 -21.599219 -21.684318 4.379371 -37.910491 -7.107821 -0.001689 138.955208 -64.297849 -121.849662 0.000000 0.000000 0.000000 23.614973 26.173240 19.593700 23.622484 27.238177 1.207232 -91.080864 45.879765 -37.970543 0.000000 0.000000 0.000000 
